<svg id="Layer_1" data-name="Layer 1" xmlns="http://www.w3.org/2000/svg" viewBox="0 0 1286.27 1960.6"><defs><style>.cls-1{fill:#f0e18d;}.cls-2{fill:#221e20;}.cls-3{fill:#f1e18c;}.cls-4{fill:#efc802;}.cls-5{fill:#efc803;}.cls-6{fill:#fcdb01;}.cls-7{fill:#fbdb04;}.cls-8{fill:#8d848d;}.cls-9{fill:#f488a3;}.cls-10{fill:#e3b609;}.cls-11{fill:#8dcd6a;}.cls-12{fill:#e4b60a;}.cls-13{fill:#8ce1b5;}.cls-14{fill:#f1e752;}.cls-15{fill:#8cd68a;}.cls-16{fill:#f68553;}.cls-17{fill:#8ca39d;}.cls-18{fill:#ae8191;}.cls-19{fill:#b0d95a;}.cls-20{fill:#cfe656;}.cls-21{fill:#ce8198;}.cls-22{fill:#f6c351;}.cls-23{fill:#8bc1ae;}.cls-24{fill:#f6a752;}.cls-25{fill:#e9a19c;}.cls-26{fill:#f3a56d;}.cls-27{fill:#e2bf93;}.cls-28{fill:#d5ca83;}.cls-29{fill:#463813;}.cls-30{fill:#846708;}</style></defs><title>Rainbow Banana Vectorized</title><path class="cls-1" d="M1420,1735.32c-68,6.74-129-4.3-178.22-54.38-13-13.18-23.3-3.84-34.3,6.74-73.21,70.45-149,138.07-233.17,195.32-52,35.35-108.48,60.42-169.56,78-80.95,23.33-162.49,22.67-242.72,8.53-65.24-11.49-124-45.22-159.92-104.39-27.18-44.81-25.26-95-7.72-143.77,21.76-60.46,64.43-106,109.84-149.26,2.8-2.66,5.89-5,8.79-7.56,11-9.67,28.9-22.42,25.51-33-4.83-15-25.64-5-39.38-6.9-77.68-10.94-148.29-65-132.64-157.54,6.27-37.12,40.24-53.37,71.23-65.72,94.59-37.69,161.3-107.69,222.76-184.77,10.1-12.66,11-28.46,18.37-42.32,36.42-68.54,95.15-94.77,169.06-97.22,27.67-.92,54.45,5,81.71,6.89,14.58,1,22.43-4.06,30-16.82,47.08-79.07,71.55-166.9,99.55-253.3,30.65-94.58,45.14-193.12,55.84-291,9.3-85.08,32.31-163.19,73.42-236.4,44-78.3,103.27-140.33,194.16-164.27,56.57-14.9,125.16,21,158.44,82.86,25.53,47.43,34.39,99.46,41.1,151.64,13.74,106.94,13.49,214.61,5.28,321.75-7.27,94.9-20.64,189.38-31.83,284-7.44,62.88-24.66,124.07-28.14,187.51-.72,13.12,1.42,20.7,11.62,26.33,38.23,21.08,47.16,57.41,49.18,96.38,3.87,74.45-14.5,145.43-41,213.72-15.4,39.67,9.74,84.45,39.06,102.59,45.19,28,77.3,101.09,59,146.59-14,34.94-41,61.57-76.48,76.54C1520.94,1732.38,1470.89,1742.45,1420,1735.32Z" transform="translate(-364.35 -18.89)"/><path class="cls-2" d="M1228,1635.13c-90.14,98.16-188,186.68-302.82,253.81-114,66.66-237,89.55-367.21,58.09a268.14,268.14,0,0,1-62.87-24c-96.85-51.83-119.83-143.13-60.88-238,41.08-66.11,98.69-115.83,160.75-161,8.56-6.25,17.19-12.41,31.4-22.64-39.83,5-73.24,7-106.58,5-59.59-3.46-108-24.19-131.5-85.14-12.36-32.11-8.46-56.27,18.07-78.59,14.37-12.1,30.75-21.05,48.18-27.57,97.09-36.3,161.15-111.58,223.46-188.89,4.75-5.89,7.05-13.9,9.89-21.16,38.29-98,158.62-142.66,250.58-91.53,15.87,8.82,17.88-.92,23.28-9.5,46.82-74.29,77.41-155.82,103.77-238.84,37.45-117.94,54.36-239.78,71-362.22,18.22-134.39,68.22-255.5,190.09-332.84,22.39-14.2,46.63-25.29,73.44-28,53.72-5.39,95,20,122.75,77.11,38.58,79.47,45.4,165.45,47.76,251.85,6.33,231.13-27.1,458.55-65.71,685.38-3,17.39-4,27.34,17,34.29,30.33,10,40.36,38.12,44.41,67.33,8.25,59.62-4.58,116.74-22.37,173.11-6.19,19.59-14.66,38.8-18,58.87-7.11,43.1,1.13,79.56,41,107.76,32.31,22.84,61.49,51.42,62.47,97.32.75,34.89-14.49,60.33-40.7,80.26-76.09,57.87-233,61.47-312.31,8.32C1256.56,1670.39,1242.15,1652.14,1228,1635.13Z" transform="translate(-364.35 -18.89)"/><path class="cls-3" d="M1141.29,1149.65c24.32-37.59,50.13-49,91.49-37,45.34,13.2,87.8,14.93,134.16-2.78,39.85-15.23,83.84-5.6,121,17.48,30.38,18.88,38.65,60.77,27.14,106.38-18.45,73.12-34.22,146.72-21.59,222.85,6.28,37.78,19.61,71,56.22,91,17.77,9.69,29.72,25.53,26.65,48.18-6.61,36.78-18.5,47.62-56.78,55.41-69.76,14.2-134.2-2.63-194.92-35.06-44.09-23.55-60.46-68.23-71.53-113.08-14.83-60.09-17.1-121.21-10-183.26,6.46-56-13.83-122.21-83.12-135.81C1142.73,1180.57,1132,1169.59,1141.29,1149.65Z" transform="translate(-364.35 -18.89)"/><path class="cls-3" d="M435.48,1401.26c-11.4-23-4.72-36.34,19.06-47.53,60.34-28.39,116.81-63.66,167.42-107.39C665.21,1209,701.4,1167,722.52,1111.71c25.54-66.84,101.83-103.21,170.7-62.25,31.34,18.63,67,9.72,100.76,7.61,49.84-3.11,93.12,8.36,125.18,49.28,5.18,6.61,13.79,13.25,5.29,22.68-16.77,18.61-17.65,42.83-24,65.15-133.69,109.69-275,205.61-451.82,228.48-55.71,7.2-112.44,16.64-169.41,4.7C461,1423.53,445.83,1417.12,435.48,1401.26Z" transform="translate(-364.35 -18.89)"/><path class="cls-4" d="M1029.53,1465.38C958.89,1559.31,881.6,1647.14,789.7,1721c-68.38,54.94-141.38,101.49-230.05,117.4-14.68,2.64-29.16,3.15-43.78,3-58-.61-67-13-60.8-74.93,1.77-17.63,10.27-33.87,19.57-48.78,28.68-46,64.05-86.22,107.82-118.65,10.62,12.78-1,21.84-5.92,31.43-16,31.29-42.69,55.93-54.88,89.87-5.46,15.21-12.11,30.29-3.2,44.9,10,16.43,28.08,11,43.07,9.91,20.19-1.41,36.81-12.63,52.64-24.32,57-42.1,106.9-91.9,151.14-146.92,43.5-54.11,87.55-108,125.28-166.46,6.3-9.77,14.22-18.82,15.35-31.17,71.94-44.63,130.77-109.55,213-138.19,15.38-5.36,32.68-18.56,46.47,3.62-10.27,27.13-13.84,57.54-38,77.87-5.36,4.19-3.37-10.76-7.82-3.74-8.77,13.84-18.14,27.28-26.68,41.28C1073.87,1414.91,1056.88,1444.33,1029.53,1465.38Z" transform="translate(-364.35 -18.89)"/><path class="cls-5" d="M1183.46,1371.63c-1.37,66.56-2.15,133.11,14.2,198.33,2.53,10.09-.29,17.18-6.41,24-91.55,101.86-182.9,204.21-309.23,265.19-104.31,50.35-212.43,64.35-324.59,28.43-3.55-1.14-6.81-3.21-17.2-8.21,73.46-6.71,132.78-33.59,189.43-67.39,15.55,1.77,28.17-6.55,41.52-12.17,148.16-62.33,260.6-168.4,360.91-290.69,27.06-33,43.17-65.24,38.21-108C1169.12,1390.87,1163.78,1374.43,1183.46,1371.63Z" transform="translate(-364.35 -18.89)"/><path class="cls-6" d="M905.94,1406.25c6.88,2.13,13.16,2.57,6,13.19-48.83,72.71-102.33,141.74-158.51,208.94-40.29,48.19-85.75,90.33-135.24,128.42-20.23,15.57-42,27.5-69.37,26.75-40.47-1.11-53.38-24.68-36.94-61.94,16.71-37.87,45.33-67.69,64.11-103.89,3.17-6.11,7.73-11.25,6.44-18.71,1.18-1.53,2.13-3.33,3.57-4.54,35.28-29.63,59.8-72.42,97-96.68,37-24.13,85.67-29.73,128.09-46.34C843.65,1438.71,874.4,1421.48,905.94,1406.25Z" transform="translate(-364.35 -18.89)"/><path class="cls-7" d="M1183.46,1371.63c-13.72,23.76-3.51,49.59-6.27,74.31-1.19,10.55.71,21.12-7.63,30.32-47.16,52.06-90,107.89-139.94,157.58-76.84,76.53-166.29,134.28-265.13,177.81-10.38,4.57-23.19,14.06-34.82.31,126-89.87,227.28-202.26,306.06-335.21,14.23-32.42,38.6-58.54,55.53-89.28,10.86-13.1,14-32.37,31.94-39.83,18.26-15.06,19.11-39,29.16-58.22,3.57-6.85,5.07-14.4,13-17.74C1187,1302.18,1190.17,1336,1183.46,1371.63Z" transform="translate(-364.35 -18.89)"/><path class="cls-8" d="M1481.19,872.09q-7.65,53.31-15.31,106.62c-113.14-31-226.74-60.16-341.13-86.22-16.2-3.69-32.56-6.9-47.46-14.77q17.4-50.13,34.82-100.26c117.73,36.66,238.23,62.41,358,90.85C1474,869.22,1477.77,870.06,1481.19,872.09Z" transform="translate(-364.35 -18.89)"/><path class="cls-9" d="M1454.27,1055.59c.88,11.1,2,22.26-15,20.23-27.66-3.31-53.14,5.7-78.71,14.11-55.22,11.72-108.65-3-159.85-18.13-39.16-11.55-79.2-17.93-118.14-29.28l-82.4-7.24c16.31-30.09,31.75-58.6,47.2-87.1,14.83-11.33,31.8-9.66,47.71-5.24,90.1,25,182,43.2,271.2,71.51,24.79,7.87,53.15,0,75.28,19.11C1448.91,1039.89,1459.69,1042.54,1454.27,1055.59Z" transform="translate(-364.35 -18.89)"/><path class="cls-10" d="M1141.29,1149.65c-1.45,12.68-.15,24.61,15.58,26.06,80.7,7.42,101.42,92.65,94.18,155.64-9.36,81.38-3.67,161.43,35.71,236.37,18.56,35.33,51.68,48.67,84.92,61.46,51,19.64,104,24.85,157.91,12.79,25.26-5.64,39.64-22.24,46.77-46.2-.94,37.52-15.62,56-51.14,68.84-76.09,27.4-150.28,17.77-222.59-12.26-33.23-13.81-52.56-43.16-64.64-76.14-22.15-60.47-26.93-123.66-26.73-187.44.09-30.29,1-60.61.18-90.88-.94-32.75-14.68-58.38-46.2-71.79C1127.36,1210,1120,1186.8,1141.29,1149.65Z" transform="translate(-364.35 -18.89)"/><path class="cls-11" d="M1164.12,571.63q9.06-50.37,18.13-100.74c10.2,5.54,20.06,11.32,31.78,14,88,20.08,175.06,44.3,262.6,66.45,13.43,3.4,26.76,6.55,31.91,21.87,2.37,21.53-3,42.56-3.89,63.81-.93,22.29-12.74,25.55-31,22-32.52-6.33-63.91-17.44-96.21-24.12-62-12.8-122-33.14-183.87-46.32C1182.33,586.16,1170.74,582.83,1164.12,571.63Z" transform="translate(-364.35 -18.89)"/><path class="cls-12" d="M435.48,1401.26c42.35,25.5,87.64,24.07,135.3,20.36,54.7-4.26,108.22-11.12,161.16-25.69,100.39-27.62,191.56-72.31,271.78-139.25,29.57-24.68,59.37-49.65,96.78-62.49,12,27.35,6.7,43.73-23,58.86-66.19,33.69-120.5,86.39-184.71,123.64-117.93,68.41-244.43,101.57-381.52,88.6C469.12,1461.31,442.83,1439.48,435.48,1401.26Z" transform="translate(-364.35 -18.89)"/><path class="cls-13" d="M1501.38,714.93q-3.86,31.46-7.73,62.9c-.84,21.68-12.87,25.28-31.66,20.94-85-19.58-169.1-42.31-253.58-63.75-18-4.57-35.41-11.26-53.77-14.83-13.48-2.62-24.46-8.53-19.33-25.78q6.43-26,12.88-51.95c23.11-14.14,48-10.33,70.87-2.58,75.23,25.54,153.53,38.84,229.85,59.88,19.28,5.32,50.42,15.86,56.86-19.76C1503.87,697.74,1502.67,704.26,1501.38,714.93Z" transform="translate(-364.35 -18.89)"/><path class="cls-14" d="M1200,365.07a235.25,235.25,0,0,1,15.94-58.51c29.28-7.32,55.06,7.49,81.69,14.28,60.73,15.48,122.21,28.26,181.91,47.45,14.06,4.51,20.83-8.29,32.18-8.15,7.23,33.54,1.55,67.49,3.3,101.18-9.89,14.55-24.86,9.78-36.77,6.82-84.54-21-169.84-39-253.66-63C1202.27,398.76,1192.46,388.09,1200,365.07Z" transform="translate(-364.35 -18.89)"/><path class="cls-15" d="M1501.38,714.93c-.82-8.43,4.3-16.47,3.47-24.91-4.26,31.39-28,26.94-45.09,21.73C1381.72,688,1300,678,1223.5,648.9c-24.74-9.41-50.16-5-75.31-6.44,3.74-25.22,10.11-47.34,15.93-70.83,103.69,26.38,207.48,52.39,311,79.51,18.11,4.74,26.46,2,25.23-17.8-1.28-20.61,9.35-40.09,5.87-60.93-9-13.72-5.34-26.67,2.37-39.39q3.27-4.29,8.08-1.82C1512,592.48,1511,654.06,1501.38,714.93Z" transform="translate(-364.35 -18.89)"/><path class="cls-16" d="M1251.5,230.31c16.93-34.84,40.38-64.13,73-85.61,41.5,7.45,84.21,10.11,124.09,23.93,20.9,7.24,38,23.15,42.56,48,4.56,25.08,19.48,48.9,8.64,75.75-8.15,4.88-17,4.38-25.45,2-69.19-19.23-140-32.32-208.23-55.24C1260.56,237.31,1255,235.59,1251.5,230.31Z" transform="translate(-364.35 -18.89)"/><path class="cls-17" d="M1481.19,872.09c-24.92,12.28-47.85-3.93-69.85-8.77-87.08-19.18-172.8-44.39-260.24-62.55-15-3.11-30.2-8.53-39-23.31,3.46-20.48,8.75-40.43,17.33-59.42,21.85,22.34,51.73,26,79.71,32.94,84.14,20.87,168.32,41.58,252.36,62.85,9.38,2.37,19.26,3.75,26.68,11C1490.31,841.22,1485.52,856.62,1481.19,872.09Z" transform="translate(-364.35 -18.89)"/><path class="cls-18" d="M1077.29,877.72c30.47-3.48,57.77,9.85,86.24,16.63,90.46,21.55,180.71,44,271.16,65.62,12.77,3,24.52,6.24,31.19,18.74-1.94,13.46,1.16,27.69-6.18,40.32-73.71-17.42-146.36-39.28-220.26-55.61-49.42-10.93-97-29.95-148.07-33.74-12.17-.9-22.95-5-27.93-17.75Q1070.36,894.83,1077.29,877.72Z" transform="translate(-364.35 -18.89)"/><path class="cls-19" d="M1512.2,531.27l-6,41.13c-36.43-19-76.45-27.37-116-35-66.69-12.79-129.61-40.39-197.4-48.26-11-1.28-8.84-11.13-10.56-18.28,3.08-10.57,0-18.23,5.38-28.54,15-11,32.08-9.41,47.93-4.57,87,26.59,176.61,43.3,264.18,67.78,4.75,1.33,9.28,3.06,13,6.42C1515.67,518.51,1516.43,525,1512.2,531.27Z" transform="translate(-364.35 -18.89)"/><path class="cls-20" d="M1511.25,513.29c-45.27-1.79-86.36-22.35-130.5-29.15-65.22-10-125.74-41.79-193.12-41.78,4.7-27,5-52.3,12.34-77.29-.7,19,6.22,26.16,27,32.33,83.68,24.86,170,38.83,253.23,65,10.89,3.43,23.46-14.34,31.76,3.76C1516.61,482,1517.75,497.68,1511.25,513.29Z" transform="translate(-364.35 -18.89)"/><path class="cls-21" d="M1063.44,911.93c31.36,16.83,67.29,14.64,100.76,23.2C1253.6,958,1342,985.21,1433,1001.62c11.57,2.09,16.42,13.72,26.66,17.41.14,12.47,1.17,25.08-5.43,36.56-12.85-15.6-28.9-26.38-49.5-25.16-17.58,1-32.62-6.07-48-11.42-49.67-17.27-102.11-22.92-152.28-37.52-51.64-15-102.31-33.61-157.11-33.31C1048.59,934.26,1056.33,923.24,1063.44,911.93Z" transform="translate(-364.35 -18.89)"/><path class="cls-22" d="M1506.57,360.39c2,18.44-3.84,24.27-22.87,17.42-66.58-23.95-137-34-204.61-55.05-19.86-6.19-40.8-16.45-63.19-16.2q7.88-20,15.74-40.06c11-9.07,24.47-10.77,35.64-3.91,31.06,19.09,66.77,20.72,100.58,29,39.82,9.72,78.75,22.46,118.53,32.18,8.56,2.1,16.77,5.33,22.58,12.65C1512.81,344.86,1512.65,352.92,1506.57,360.39Z" transform="translate(-364.35 -18.89)"/><path class="cls-23" d="M1488.19,824.8c-49.53-4.85-96.57-21.11-144.77-32C1283,779.2,1223,763.49,1163,747.84c-15.44-4-33.81-7.06-33.54-29.8,1.89-10.71,4.58-14.37,5.87-23.63,1.57,9.27,5.13,15.92,15.7,18.5,104.89,25.64,209.91,50.86,314.3,78.42,17.45,4.61,22.47-1.5,28.34-13.5Z" transform="translate(-364.35 -18.89)"/><path class="cls-24" d="M1506.21,336.84c-72.28-17.37-143.14-40.27-216.5-53.7-19.43-3.55-34.89-23.75-58.07-16.64,5.23-12.83,9.5-26.18,19.87-36.19q85,21,170.12,42.09c26.13,6.49,51.46,16.54,78.83,17.44q5.22-3.31,8.16,2.14C1508.11,306.94,1512.44,322.18,1506.21,336.84Z" transform="translate(-364.35 -18.89)"/><path class="cls-25" d="M1082.57,1042.52c53.43-5.47,100.1,20.46,150,30.67,41.54,8.49,84,21.84,128,16.74-26.56,11.82-53.25,12.12-81.62,5.3-39.68-9.55-80.27-18.09-118.18,7.35-5.16,3.46-10.52,7-13.18-2.1C1137.94,1067.56,1109.84,1055.54,1082.57,1042.52Z" transform="translate(-364.35 -18.89)"/><path class="cls-26" d="M1505.77,290q-2.65-.11-5.31-.15c-3-40.24-3.49-81.87-43-107-19.36-12.3-40.27-24.07-64.34-13.15-13.71,6.22-18-8.15-28-10.41-13.93-3.18-27.13-9.59-40.65-14.62,11.92-11,25.27-19.58,41.17-23.69,47.21-4.81,85.62,9.64,111.72,51.05C1497,206,1505.12,243,1507,281.71Q1510.17,286.39,1505.77,290Z" transform="translate(-364.35 -18.89)"/><path class="cls-27" d="M1477.37,172.06a51.88,51.88,0,0,1-4.83,2.2c-23.9-41.4-67.27-43.57-106.89-53.25C1414.79,100.75,1453.13,118.27,1477.37,172.06Z" transform="translate(-364.35 -18.89)"/><path class="cls-28" d="M1505.77,290c.39-2.75.79-5.51,1.18-8.27,11.7,46.52,12.15,94.07,12,141.57-.1,36-1.5,71.93-2.32,107.9l-2.23-.11-2.22.18q-.46-9-.94-18,.35-23.56.72-47.12c-2.34-35.23,6.66-71.05-5.42-105.78q-.16-11.77-.35-23.55Q1506,313.43,1505.77,290Z" transform="translate(-364.35 -18.89)"/><path class="cls-29" d="M1095.14,1389.7c-18.89,29.64-33.22,62.39-59.4,87-.08-4.88-1.56-9-6.21-11.37l59.15-82.27C1094.31,1381.9,1097.12,1383.46,1095.14,1389.7Z" transform="translate(-364.35 -18.89)"/><path class="cls-30" d="M1095.14,1389.7l-6.46-6.59c8.8-13.54,16.71-27.79,26.71-40.37,7.19-9,8-1.42,7.81,4.9Z" transform="translate(-364.35 -18.89)"/></svg>